<?xml version="1.0" standalone="no"?>
<!DOCTYPE svg PUBLIC "-//W3C//DTD SVG 20010904//EN"
 "http://www.w3.org/TR/2001/REC-SVG-20010904/DTD/svg10.dtd">
<svg version="1.0" xmlns="http://www.w3.org/2000/svg"
 width="728.000000pt" height="540.000000pt" viewBox="0 0 728.000000 540.000000"
 preserveAspectRatio="xMidYMid meet">
<metadata>
Created by potrace 1.16, written by Peter Selinger 2001-2019
</metadata>
<g transform="translate(0.000000,540.000000) scale(0.100000,-0.100000)"
fill="#000000" stroke="none">
<path d="M0 2700 l0 -2700 3640 0 3640 0 0 2700 0 2700 -3640 0 -3640 0 0
-2700z m3922 2084 c404 -56 759 -213 1070 -473 662 -554 914 -1457 638 -2284
-300 -898 -1194 -1491 -2137 -1419 -531 41 -999 260 -1365 641 -510 529 -702
1270 -518 1992 97 379 332 762 630 1026 314 277 701 458 1110 517 134 20 433
20 572 0z"/>
<path d="M3451 4618 c-273 -26 -606 -138 -820 -278 -35 -23 -70 -39 -78 -36
-8 3 -44 27 -80 53 -49 34 -64 42 -60 27 4 -10 16 -50 28 -88 l21 -70 -53 -45
c-327 -272 -571 -680 -653 -1091 -53 -267 -48 -576 14 -839 l21 -85 -23 -18
c-13 -10 -44 -33 -70 -50 -26 -18 -48 -36 -48 -40 0 -5 41 -8 90 -8 77 0 92
-3 97 -18 3 -9 23 -57 44 -107 173 -401 516 -758 914 -950 214 -104 429 -164
669 -188 l119 -12 26 -77 c14 -42 28 -79 32 -82 3 -3 17 32 32 77 l27 83 127
12 c646 62 1209 441 1521 1022 22 41 55 112 73 158 l33 82 88 0 c48 0 88 3 88
8 0 4 -24 24 -53 45 -28 21 -60 44 -69 51 -16 12 -16 17 2 87 46 176 66 420
50 609 -33 405 -186 780 -442 1085 -76 91 -191 205 -261 260 l-38 30 25 80
c14 44 26 83 26 88 0 4 -31 -15 -69 -43 -38 -27 -72 -50 -76 -50 -4 0 -37 18
-72 41 -341 215 -783 317 -1202 277z m-20 -1031 l726 -527 -20 -70 c-12 -39
-25 -70 -30 -70 -7 0 -671 479 -1007 726 -169 125 -294 213 -297 211 -1 -2 25
-86 58 -187 55 -168 167 -513 183 -567 6 -18 -2 -28 -48 -62 -30 -23 -59 -41
-64 -41 -4 0 -97 276 -206 613 -110 336 -201 618 -204 625 -2 7 38 -17 89 -55
52 -37 421 -305 820 -596z m1034 -259 c-164 -502 -304 -934 -312 -960 l-14
-48 -74 0 c-48 0 -75 4 -75 11 0 9 364 1139 466 1448 14 40 23 75 22 76 -2 2
-151 -104 -332 -236 l-328 -238 -42 30 c-78 56 -80 59 -70 68 5 5 236 174 514
376 278 201 511 373 519 380 8 8 17 13 19 11 2 -2 -130 -415 -293 -918z m-939
-67 c30 -22 55 -42 55 -46 0 -4 -161 -123 -358 -266 -197 -143 -489 -356 -649
-472 l-292 -212 411 -5 410 -5 23 -68 c17 -50 20 -69 11 -73 -7 -2 -304 -3
-662 -2 l-649 3 584 424 c322 234 650 473 730 531 275 201 315 230 323 230 5
0 33 -18 63 -39z m1371 -739 c280 -203 518 -375 531 -383 12 -8 22 -17 22 -21
0 -5 -454 -8 -1009 -8 l-1009 0 -21 65 c-12 35 -21 69 -21 75 0 7 259 11 806
12 l805 3 -331 240 c-239 174 -329 244 -324 255 3 8 12 41 21 73 9 31 18 57
20 57 1 0 231 -166 510 -368z m-1730 208 c12 -36 50 -155 86 -265 36 -110 116
-355 177 -545 62 -190 132 -406 156 -480 24 -74 44 -141 44 -147 0 -48 31 34
140 372 l124 385 78 0 c57 0 76 -3 73 -12 -2 -7 -61 -188 -130 -403 -232 -716
-274 -840 -279 -825 -3 8 -94 287 -202 620 -107 333 -245 756 -305 941 -60
184 -109 340 -109 346 0 15 113 95 120 85 3 -4 16 -36 27 -72z"/>
</g>
</svg>
